<mxfile host="app.diagrams.net" modified="2023-04-13T07:47:42.340Z" agent="Mozilla/5.0 (Macintosh; Intel Mac OS X 10_15_7) AppleWebKit/537.36 (KHTML, like Gecko) Chrome/112.0.0.0 Safari/537.36" etag="ejnByeVhWA3mXGpETJOf" version="21.1.6" type="github">
  <diagram name="Page-1" id="KZ9rd2bxtFTnGW4ZnATM">
    <mxGraphModel dx="1226" dy="825" grid="1" gridSize="10" guides="1" tooltips="1" connect="1" arrows="1" fold="1" page="1" pageScale="1" pageWidth="827" pageHeight="1169" math="0" shadow="0">
      <root>
        <mxCell id="0" />
        <mxCell id="1" parent="0" />
        <mxCell id="nrK3TZJZY1Gwk5Lh07fo-8" value="" style="whiteSpace=wrap;html=1;aspect=fixed;" vertex="1" parent="1">
          <mxGeometry x="200" y="120" width="360" height="360" as="geometry" />
        </mxCell>
        <mxCell id="nrK3TZJZY1Gwk5Lh07fo-9" value="" style="rounded=0;whiteSpace=wrap;html=1;" vertex="1" parent="1">
          <mxGeometry x="200" y="120" width="360" height="40" as="geometry" />
        </mxCell>
        <mxCell id="nrK3TZJZY1Gwk5Lh07fo-12" value="" style="rounded=0;whiteSpace=wrap;html=1;" vertex="1" parent="1">
          <mxGeometry x="200" y="440" width="360" height="40" as="geometry" />
        </mxCell>
        <mxCell id="nrK3TZJZY1Gwk5Lh07fo-13" value="Good chives only" style="text;strokeColor=none;align=center;fillColor=none;html=1;verticalAlign=middle;whiteSpace=wrap;rounded=0;" vertex="1" parent="1">
          <mxGeometry x="190" y="125" width="370" height="30" as="geometry" />
        </mxCell>
        <mxCell id="nrK3TZJZY1Gwk5Lh07fo-15" value="" style="rounded=0;whiteSpace=wrap;html=1;" vertex="1" parent="1">
          <mxGeometry x="200" y="160" width="360" height="20" as="geometry" />
        </mxCell>
        <mxCell id="nrK3TZJZY1Gwk5Lh07fo-14" value="All products&lt;span style=&quot;white-space: pre;&quot;&gt; &lt;/span&gt;Herbs&lt;span style=&quot;white-space: pre;&quot;&gt; &lt;/span&gt;Spices" style="text;strokeColor=none;align=center;fillColor=none;html=1;verticalAlign=middle;whiteSpace=wrap;rounded=0;" vertex="1" parent="1">
          <mxGeometry x="200" y="155" width="190" height="30" as="geometry" />
        </mxCell>
        <mxCell id="nrK3TZJZY1Gwk5Lh07fo-18" value="About&lt;span style=&quot;white-space: pre;&quot;&gt; &lt;/span&gt;Customer service&lt;span style=&quot;white-space: pre;&quot;&gt; &lt;/span&gt;About us&lt;span style=&quot;white-space: pre;&quot;&gt; &lt;/span&gt;" style="text;strokeColor=none;align=center;fillColor=none;html=1;verticalAlign=middle;whiteSpace=wrap;rounded=0;" vertex="1" parent="1">
          <mxGeometry x="272" y="445" width="235" height="30" as="geometry" />
        </mxCell>
      </root>
    </mxGraphModel>
  </diagram>
</mxfile>
